<svg id="Layer_1" data-name="Layer 1" xmlns="http://www.w3.org/2000/svg" viewBox="0 0 1395 373"><defs><style>.cls-1{fill:#fff;}.cls-2{fill:#ff7a59;}</style></defs><path class="cls-1" d="M64,280.24c4.26,24.8,22.47,40.3,46.89,40.3,18.22,0,33.72-8.91,41.47-23.25l45.34,12.4c-17.82,34.88-49.22,54.65-87.2,54.65-57,0-97.66-40.31-97.66-96.12,0-56.19,39.14-95.72,94.56-95.72,57.36,0,97.28,40.3,97.28,98.05l-.39,9.69ZM153.86,252c-4.26-23.65-21.32-38-45.73-38C84.49,214,68.6,227.53,64,252Z"/><path class="cls-1" d="M375.43,178.7l-65.5,179.44H259.16L194.44,178.7H245.6l39.53,107,39.92-107Z"/><path class="cls-1" d="M562,270.16c0,52.71-43,94.18-98,94.18-56.59,0-97.28-39.92-97.28-95.73,0-57,39.92-96.11,98.05-96.11C521.34,172.5,562,213.58,562,270.16Zm-145.72-1.55c0,31,19.37,51.93,48.05,51.93,28.29,0,48.06-21.31,48.06-51.16,0-32.55-18.22-52.7-47.67-52.7C435.69,216.68,416.32,237.22,416.32,268.61Z"/><path class="cls-1" d="M582.54,358.14V99.63h49.22V358.14Z"/><path class="cls-1" d="M817.9,178.7V292.25c0,26.35-5.43,41.08-20.15,53.48-14.34,12-34.5,18.61-58.14,18.61-24.8,0-46.12-7-60.07-19.77-12.79-11.63-19-28.68-19-52.32V178.7h49.22V289.15c0,20.15,12,33.72,29.84,33.72,18.22,0,29.07-11.63,29.07-30.62V178.7Z"/><path class="cls-1" d="M901.26,305.43c0,8.52,3.1,10.85,14,11.62h8.53v41.09H884.6c-24-.78-33-10.47-32.56-34.11V219.39H831.5V177.92H852V129.86h49.22v48.06h22.48v41.47H901.26Z"/><path class="cls-1" d="M996.44,127.93c0,15.11-11.62,26.74-27.13,26.74-15.89,0-27.51-11.63-27.51-27.13,0-15.89,11.62-27.52,27.51-27.52S996.44,111.65,996.44,127.93Zm-2.71,230.21H944.51V178.7h49.22Z"/><path class="cls-1" d="M1208.28,270.16c0,52.71-43,94.18-98,94.18-56.59,0-97.28-39.92-97.28-95.73,0-57,39.92-96.11,98-96.11C1167.58,172.5,1208.28,213.58,1208.28,270.16Zm-145.72-1.55c0,31,19.37,51.93,48,51.93,28.3,0,48.06-21.31,48.06-51.16,0-32.55-18.21-52.7-47.67-52.7C1081.93,216.68,1062.56,237.22,1062.56,268.61Z"/><path class="cls-1" d="M1277.53,178.7v22.09c13.18-20.54,26.36-28.29,48.84-28.29,17.05,0,33.33,6.2,44.18,16.66,11.62,11.63,15.89,26,15.89,55.42V358.14h-49.22V246.91c0-10.08-1.17-15.89-4.27-20.93-4.65-7.36-14-12-23.64-12-19,0-31.78,14.34-31.78,35.27V358.14h-49.22V178.7Z"/><path class="cls-2" d="M46.66,49V61.09c6.05-10.63,14.17-15.42,26.47-15.42,12.5,0,21.67,5.63,26.25,16,6.46-11,15.42-16,29.17-16,9.8,0,17.93,3.13,23.34,9,5.84,6.46,7.71,13.13,7.71,27.71v63.14H133.14V87.34c0-13.12-4.79-19.37-14.8-19.37-9.79,0-15.42,7.08-15.42,19.37v58.14H76.46V88.18c0-13.34-5-20.21-14.58-20.21-10,0-15.22,6.87-15.22,20.21v57.3H20.2V49Z"/><path class="cls-2" d="M201.27,103.6c2.29,13.33,12.09,21.67,25.22,21.67,9.79,0,18.12-4.79,22.29-12.5l24.38,6.66c-9.58,18.76-26.46,29.39-46.88,29.39-30.63,0-52.51-21.68-52.51-51.68,0-30.22,21-51.47,50.84-51.47,30.84,0,52.3,21.67,52.3,52.72l-.21,5.21Zm48.35-15.21C247.32,75.68,238.16,68,225,68c-12.71,0-21.26,7.29-23.76,20.42Z"/><path class="cls-2" d="M364.64,6.5H391.1v139H364.64V132.77c-8.34,11.46-17.51,16-32.3,16-28.55,0-47.72-20.43-47.72-50.64C284.62,81.93,290,68.38,300,59a48.22,48.22,0,0,1,32.72-13.34c13.12,0,22.5,4.17,31.88,14ZM312.75,98.39c0,16.67,11,29.17,26.05,29.17,14.58,0,25.84-12.71,25.84-29.38C364.64,80.68,353.8,68,339,68,323.79,68,312.75,80.68,312.75,98.39Z"/><path class="cls-2" d="M439.86,21.71a14.2,14.2,0,0,1-14.59,14.37c-8.54,0-14.79-6.25-14.79-14.58A14.35,14.35,0,0,1,425.27,6.7C433.81,6.7,439.86,13,439.86,21.71ZM438.4,145.48H411.93V49H438.4Z"/><path class="cls-2" d="M533.41,49h26.47v96.48H533.41V132.15c-9,11.46-19.38,16.67-33.54,16.67-27.09,0-46.47-21-46.47-50.43C453.4,68,473.82,45.67,502,45.67c13.13,0,22.09,4.58,31.46,15.63ZM481.74,98c0,16.88,11,29.59,25.42,29.59,14.79,0,26.67-13.75,26.67-30.42C533.83,80.05,523,68,507.37,68,492.36,68,481.74,80.26,481.74,98Z"/></svg>